# xmcd CD database file
#
# Track frame offsets:
#	150
#	1542
#	10682
#	27130
#	40635
#	56770
#	71150
#	81965
#	100632
#	116672
#	127035
#	143195
#	148580
#	159342
#	176572
#	188155
#	206402
#	224550
#	233297
#	250895
#	264432
#	275370
#	284490
#	299310
#
# Disc length: 4290 seconds
#
# Revision: 0
# Processed by: cddbd v1.5.1PL2 Copyright (c) Steve Scherf et al.
# Submitted via: CDex 1.51
#
DISCID=5210c018
DTITLE=DJ TARO - FUTURE CLASSICS PYLON
DYEAR=2000
DGENRE=Club
TTITLE0=Interlude
TTITLE1=That's The Way
TTITLE2=Canta Loop[Filip Fantasia]
TTITLE3=Geine In a Bottle[Latino Mix]
TTITLE4=No Scurb[Latino Mix]
TTITLE5=Corazon
TTITLE6=Smells Like Teen Spirit
TTITLE7=Song2[radio Version]
TTITLE8=Stomo To My Beat[Original Mix]
TTITLE9=The Greatest Love Of All[The Fresh Boys Mix]
TTITLE10=We Are Family[Club Mix]
TTITLE11=September[Rap Mix]
TTITLE12=American Love[Club Mix]
TTITLE13=Truly Maddly Deeply[Radio Version]
TTITLE14=Why Does It Always Rain On Me[Radio Version]
TTITLE15=Angel Of Mine [Radio Version]
TTITLE16=Bitter Sweet Symphony[Radio Version]
TTITLE17=What You Do[Playing With Stones Edit]
TTITLE18=I Was Made For Dancin'[Made In Miami Mix]
TTITLE19=Hot Stuff[Hard Hat Mix]
TTITLE20=Into The Groove[Radio Edit]
TTITLE21=You Give Me Love
TTITLE22=Close to You
TTITLE23=More Than I Need to Know[DJ TARO Remix]
EXTD=YEAR: 2000
EXTT0=
EXTT1=
EXTT2=
EXTT3=
EXTT4=
EXTT5=
EXTT6=
EXTT7=
EXTT8=
EXTT9=
EXTT10=
EXTT11=
EXTT12=
EXTT13=
EXTT14=
EXTT15=
EXTT16=
EXTT17=
EXTT18=
EXTT19=
EXTT20=
EXTT21=
EXTT22=
EXTT23=
PLAYORDER=
